<?xml version="1.0" encoding="utf-8"?>
<!-- Generator: Adobe Illustrator 24.0.1, SVG Export Plug-In . SVG Version: 6.00 Build 0)  -->
<svg version="1.1" id="Capa_1" xmlns="http://www.w3.org/2000/svg" xmlns:xlink="http://www.w3.org/1999/xlink" x="0px" y="0px"
	 viewBox="0 0 512 512" style="enable-background:new 0 0 512 512;" xml:space="preserve">
<style type="text/css">
	.st0{fill:#34E2AC;}
	.st1{fill:#1EBC88;}
	.st2{fill:#FFBB99;}
	.st3{fill:#FF9680;}
	.st4{fill:#002C31;}
	.st5{fill:#FFD9B3;}
	.st6{fill:#005967;}
	.st7{fill:#030303;}
</style>
<g>
	<path id="XMLID_393_" class="st0" d="M165.6,300.7c-66.3,1.4-120.5,55.4-120.5,123.1V512h75.3l15.1-10l15.1,10H256l10-57l-10-48.9
		l-55.7-52L165.6,300.7z"/>
	<path id="XMLID_392_" class="st1" d="M256,406.1V512h105.4l15.1-10l15.1,10h75.3c0-10.7,0-77.4,0-88.2c0-67-53.7-121.7-120.5-123.1
		l-34.1,60.2L256,406.1z"/>
	<path id="XMLID_391_" class="st1" d="M256,406.1V376l-60.2-85.3c-7.5,6.3-17.1,10-27.4,10c-0.9,0-1.8,0-2.7,0v15
		C165.6,365.7,206.1,406.1,256,406.1z"/>
	<path id="XMLID_359_" class="st0" d="M329.1,298.1c-4.7-1.7-9.1-4.2-12.8-7.4L256,376v30.1c49.8,0,90.4-40.3,90.4-90.4v-15
		C342,300.6,336.7,300.9,329.1,298.1z"/>
	<g id="XMLID_351_">
		<path id="XMLID_356_" class="st1" d="M120.5,436.7h30.1V512h-30.1L120.5,436.7z"/>
	</g>
	<g id="XMLID_348_">
		<path id="XMLID_349_" class="st0" d="M361.4,512h30.1c0-20.3,0-63.5,0-75.3c-10.5,0-19.6,0-30.1,0V512z"/>
	</g>
	<path id="XMLID_344_" class="st2" d="M232.6,247.9l-21.8,1c-0.1,12.7-5.9,34.1-15.1,41.8v25c0,33.3,27,60.2,60.2,60.2l10-52.5
		L256,261L232.6,247.9z"/>
	<path id="XMLID_29_" class="st3" d="M279.4,247.9l21.8,1c0.1,12.7,5.9,34.1,15.1,41.8v25c0,33.3-27,60.2-60.2,60.2
		c0-28.2,0-97.9,0-114.9L279.4,247.9z"/>
	<path class="st4" d="M256,0c-7,0-11.7,0-45.2,0c-25,0-45.2,21.2-45.2,46.2v14.1l46.3,7.3l44.1-7.3l10-30.1L256,0z"/>
	<path class="st5" d="M165.6,90.4v88.8c0,49.9,40.5,90.4,90.4,90.4l10-88.8l-10-90.4l-40.2-10L165.6,90.4z"/>
	<path class="st2" d="M301.2,82L256,90.4v179.2c49.9,0,90.4-40.5,90.4-90.4V90.4L301.2,82z"/>
	<path class="st6" d="M165.6,60.3v30.1H256l10-15.1l-10-15.1L165.6,60.3z"/>
	<path class="st7" d="M256,0v60.3l66.3,7.3l60.3-7.3c1.1-5.9,0.4-4.9,0.6-60.2C383.2,0,295.9,0,256,0L256,0z"/>
	<path class="st4" d="M256,60.3v30.1h90.4c18,0,33.1-13,36.2-30.1L256,60.3z"/>
</g>
</svg>
