<?xml version="1.0" encoding="utf-8"?>
<!-- Generator: Adobe Illustrator 24.0.1, SVG Export Plug-In . SVG Version: 6.00 Build 0)  -->
<svg version="1.1" id="Capa_1" xmlns="http://www.w3.org/2000/svg" xmlns:xlink="http://www.w3.org/1999/xlink" x="0px" y="0px"
	 viewBox="0 0 512 512" style="enable-background:new 0 0 512 512;" xml:space="preserve">
<style type="text/css">
	.st0{fill:#FFFFFF;}
	.st1{fill:#D6A774;}
	.st2{fill:#C59565;}
	.st3{fill:#EBBE87;}
	.st4{fill:#BD8967;}
	.st5{fill:#B98861;}
	.st6{fill:#CB9A6A;}
	.st7{fill:#BA8756;}
	.st8{fill:#EDCB9C;}
</style>
<g>
	<path class="st0" d="M63.5,166.7"/>
	<polygon class="st1" points="61.6,393.6 230.7,447.4 230.7,203.2 63.5,166.7 	"/>
	<polygon class="st2" points="426.5,172.7 426.5,401.6 230.7,447.4 230.7,203.2 	"/>
	<polygon class="st3" points="63.5,166.7 2.5,236.4 175,282.8 230.7,203.2 	"/>
	<polygon class="st4" points="176.3,298.1 230.7,203.2 175,282.8 2.5,236.4 	"/>
	<polygon class="st5" points="279.8,297.4 426.6,264 426.5,251.8 285.2,282.8 230.7,203.2 	"/>
	<polygon class="st6" points="259.9,145.5 426.5,172.7 260.5,198.5 	"/>
	<polygon class="st7" points="63.5,166.7 230.9,203.5 260.9,198.5 259.9,145.5 	"/>
	<polygon class="st8" points="311.7,64.3 259.9,145.5 426.5,172.7 489.1,87.1 	"/>
	<polygon class="st8" points="14,85.7 63.5,166.7 259.9,145.5 213.7,64.8 	"/>
	<polygon class="st8" points="426.5,172.7 510,233.6 285.2,282.8 230.7,203.2 	"/>
</g>
</svg>
